<?xml version="1.0" encoding="UTF-8"?>
<svg xmlns="http://www.w3.org/2000/svg" version="1.1" viewBox="0 0 385.69 387.75">
  <defs>
    <style>
      .cls-1 {
        fill: #D1495B;
      }
    </style>
  </defs>
  <!-- Generator: Adobe Illustrator 28.6.0, SVG Export Plug-In . SVG Version: 1.2.0 Build 709)  -->
  <g>
    <g id="Capa_1">
      <path class="cls-1" d="M63.35,210.53l261.42-.09c33.64,0,60.92-27.27,60.92-60.92s-27.27-60.92-60.92-60.92H109.17c-15.01,0-27.18-12.4-27.18-27.69,0-15.29,12.17-27.69,27.18-27.69h224.93c9.17,0,16.61-7.44,16.61-16.61C350.71,7.44,343.27,0,334.1,0H106.74C73.1,0,45.82,27.27,45.82,60.92c0,33.64,27.27,60.92,60.92,60.92h215.6c15.01,0,27.18,12.4,27.18,27.69,0,15.29-12.17,27.69-27.18,27.69l-261.42.09c-33.64,0-60.92,27.27-60.92,60.92,0,33.64,27.27,60.92,60.92,60.92h215.6c15.01,0,27.18,12.4,27.18,27.69s-12.17,27.69-27.18,27.69H62.44c-9.18,0-16.61,7.44-16.61,16.61,0,9.18,7.44,16.61,16.61,16.61h216.51c33.64,0,60.92-27.27,60.92-60.92,0-33.64-27.27-60.92-60.92-60.92H63.35c-15.01,0-27.18-12.4-27.18-27.69s12.17-27.69,27.18-27.69Z"/>
    </g>
  </g>
</svg>