<?xml version="1.0" encoding="UTF-8"?>
<svg xmlns="http://www.w3.org/2000/svg" version="1.1" viewBox="0 0 592.23 235.09">
  <defs>
    <style>
      .cls-1 {
        fill: #fff;
      }

      .cls-2 {
        fill: #0d0d0d;
      }

      .cls-3 {
        fill: #72b53f;
      }
    </style>
  </defs>
  <!-- Generator: Adobe Illustrator 28.6.0, SVG Export Plug-In . SVG Version: 1.2.0 Build 709)  -->
  <g>
    <g id="Capa_1">
      <g>
        <path class="cls-1" d="M0,0v235.09h592.23V0H0Z"/>
        <g>
          <g>
            <path class="cls-3" d="M388.53,164.65l-25.91-19.94-25.91,19.94c-2.41,1.85-2.86,5.31-1,7.71,1.08,1.41,2.71,2.15,4.36,2.15,1.17,0,2.35-.37,3.35-1.14l13.7-10.55v13.23c0,3.04,2.46,5.5,5.5,5.5s5.5-2.46,5.5-5.5v-13.23l13.7,10.55c2.41,1.85,5.86,1.4,7.71-1,1.85-2.41,1.4-5.86-1-7.71Z"/>
            <path class="cls-3" d="M390.68,132.89c0-3.04-2.46-5.5-5.5-5.5s-5.5,2.46-5.5,5.5v7.63l-17.06-13.13-25.91,19.94c-2.41,1.85-2.86,5.31-1,7.71,1.08,1.41,2.71,2.15,4.36,2.15,1.17,0,2.35-.37,3.35-1.14l19.2-14.78,19.2,14.78c2.41,1.85,5.86,1.4,7.71-1,.87-1.13,1.22-2.5,1.1-3.82.02-.2.04-.41.04-.62v-17.71Z"/>
          </g>
          <path class="cls-2" d="M286.26,160.94c-9.1,0-16.47-7.51-16.47-16.78s7.37-16.78,16.47-16.78h52.43c20.39,0,36.92-16.53,36.92-36.92s-16.53-36.92-36.92-36.92h-123.08v128h20.14v-107.86h101.47c9.1,0,16.47,7.51,16.47,16.78s-7.37,16.78-16.47,16.78h-52.43c-20.39,0-36.92,16.53-36.92,36.92s16.53,36.92,36.92,36.92c14.35,0,26.78-8.18,32.89-20.14h-31.42Z"/>
          <g>
            <path class="cls-2" d="M173.54,53.54h-81.01c-20.39,0-36.92,16.53-36.92,36.92s16.53,36.92,36.92,36.92c14.35,0,26.78-8.18,32.89-20.14h-31.42c-9.1,0-16.47-7.51-16.47-16.78s7.37-16.78,16.47-16.78h79.54c5.56,0,10.07-4.51,10.07-10.07s-4.51-10.07-10.07-10.07Z"/>
            <path class="cls-2" d="M84.62,181.54h81.01c20.39,0,36.92-16.53,36.92-36.92s-16.53-36.92-36.92-36.92c-14.35,0-26.78,8.18-32.89,20.14h31.42c9.1,0,16.47,7.51,16.47,16.78s-7.37,16.78-16.47,16.78h-79.54c-5.56,0-10.07,4.51-10.07,10.07s4.51,10.07,10.07,10.07Z"/>
          </g>
          <g>
            <path class="cls-2" d="M506.6,53.55h-81.01c-20.39,0-36.92,16.53-36.92,36.92s16.53,36.92,36.92,36.92c14.35,0,26.78-8.18,32.89-20.14h-31.42c-9.1,0-16.47-7.51-16.47-16.78s7.37-16.78,16.47-16.78h79.54c5.56,0,10.07-4.51,10.07-10.07s-4.51-10.07-10.07-10.07Z"/>
            <path class="cls-2" d="M417.68,181.55h81.01c20.39,0,36.92-16.53,36.92-36.92s-16.53-36.92-36.92-36.92c-14.35,0-26.78,8.18-32.89,20.14h31.42c9.1,0,16.47,7.51,16.47,16.78s-7.37,16.78-16.47,16.78h-79.54c-5.56,0-10.07,4.51-10.07,10.07s4.51,10.07,10.07,10.07Z"/>
          </g>
        </g>
      </g>
    </g>
  </g>
</svg>