<?xml version="1.0" encoding="UTF-8"?>
<svg xmlns="http://www.w3.org/2000/svg" xmlns:xlink="http://www.w3.org/1999/xlink" version="1.1" viewBox="0 0 592.2 302.8">
  <defs>
    <style>
      .cls-1 {
        fill: #003d5b;
      }

      .cls-2 {
        fill: none;
      }

      .cls-3 {
        fill: #009697;
      }
    </style>
  </defs>
  <!-- Generator: Adobe Illustrator 28.7.1, SVG Export Plug-In . SVG Version: 1.2.0 Build 142)  -->
  <g>
    <g id="Capa_1">
      <g id="Capa_1-2" data-name="Capa_1">
        <g>
          <path class="cls-2" d="M0,0v302.8h592.2V0H0Z"/>
          <g>
            <path class="cls-3" d="M389,165l-25.9-19.9-25.9,19.9c-2.4,1.9-2.9,5.3-1,7.7,1.1,1.4,2.7,2.1,4.4,2.1s2.4-.4,3.4-1.1l13.7-10.6v13.2c0,3,2.5,5.5,5.5,5.5s5.5-2.5,5.5-5.5v-13.2l13.7,10.6c2.4,1.9,5.9,1.4,7.7-1,1.9-2.4,1.4-5.9-1-7.7h0Z"/>
            <path class="cls-3" d="M391.2,133.2c0-3-2.5-5.5-5.5-5.5s-5.5,2.5-5.5,5.5v7.6l-17.1-13.1-25.9,19.9c-2.4,1.9-2.9,5.3-1,7.7,1.1,1.4,2.7,2.1,4.4,2.1s2.4-.4,3.4-1.1l19.2-14.8,19.2,14.8c2.4,1.9,5.9,1.4,7.7-1,.9-1.1,1.2-2.5,1.1-3.8,0-.2,0-.4,0-.6v-17.7h0Z"/>
          </g>
          <path class="cls-1" d="M286.8,161.3c-9.1,0-16.5-7.5-16.5-16.8s7.4-16.8,16.5-16.8h52.4c20.4,0,36.9-16.5,36.9-36.9s-16.5-36.9-36.9-36.9h-123.1v128h20.1v-107.9h101.5c9.1,0,16.5,7.5,16.5,16.8s-7.4,16.8-16.5,16.8h-52.4c-20.4,0-36.9,16.5-36.9,36.9s16.5,36.9,36.9,36.9,26.8-8.2,32.9-20.1h-31.4,0Z"/>
          <g>
            <path class="cls-1" d="M174.1,53.9h-81c-20.4,0-36.9,16.5-36.9,36.9s16.5,36.9,36.9,36.9,26.8-8.2,32.9-20.1h-31.4c-9.1,0-16.5-7.5-16.5-16.8s7.4-16.8,16.5-16.8h79.5c5.6,0,10.1-4.5,10.1-10.1s-4.5-10.1-10.1-10.1h0Z"/>
            <path class="cls-1" d="M85.1,181.9h81c20.4,0,36.9-16.5,36.9-36.9s-16.5-36.9-36.9-36.9-26.8,8.2-32.9,20.1h31.4c9.1,0,16.5,7.5,16.5,16.8s-7.4,16.8-16.5,16.8h-79.5c-5.6,0-10.1,4.5-10.1,10.1s4.5,10.1,10.1,10.1Z"/>
          </g>
          <g>
            <path class="cls-1" d="M507.1,53.9h-81c-20.4,0-36.9,16.5-36.9,36.9s16.5,36.9,36.9,36.9,26.8-8.2,32.9-20.1h-31.4c-9.1,0-16.5-7.5-16.5-16.8s7.4-16.8,16.5-16.8h79.5c5.6,0,10.1-4.5,10.1-10.1s-4.5-10.1-10.1-10.1Z"/>
            <path class="cls-1" d="M418.2,181.9h81c20.4,0,36.9-16.5,36.9-36.9s-16.5-36.9-36.9-36.9-26.8,8.2-32.9,20.1h31.4c9.1,0,16.5,7.5,16.5,16.8s-7.4,16.8-16.5,16.8h-79.5c-5.6,0-10.1,4.5-10.1,10.1s4.5,10.1,10.1,10.1Z"/>
          </g>
          <g>
            <path class="cls-1" d="M72.7,237.8h-11.5v-6.6h8.8c.6,0,1-.2,1.3-.5s.5-.9.5-1.6,0-.8-.2-1.1c-.1-.4-.2-.6-.4-.8h-10v-5.9h9.9c.6,0,1.1-.2,1.4-.6.3-.4.5-.9.5-1.6s0-.8-.2-1.1c-.1-.4-.2-.6-.4-.8h-13.5c-.8,0-1.5.2-2,.7s-.8,1.2-.8,2v19.4c0,.8.2,1.5.8,2,.5.5,1.2.8,2,.8h12.5c.6,0,1-.2,1.3-.5s.5-.9.5-1.6,0-.8-.2-1.2c-.1-.4-.2-.6-.3-.8h0Z"/>
            <path class="cls-1" d="M102.4,222.6c-1.2-.5-2.5-.7-3.9-.7s-2.9.2-4.1.8c-.8.4-1.6.8-2.2,1.3-.7-.6-1.4-1.1-2.4-1.4-1.1-.4-2.3-.6-3.7-.6s-2.6.2-3.9.5c-1.2.4-2.3.8-3.1,1.4-.6.4-1,.7-1.2,1.2-.3.4-.4,1-.4,1.6v13.1c0,.9.2,1.5.7,1.8.4.3,1.1.5,2.1.5s.9,0,1.3-.1c.4,0,.7-.1.9-.2v-14.8c.4-.3.9-.5,1.5-.7.6-.2,1.2-.3,1.9-.3s1.8.2,2.4.8c.6.5,1,1.3,1,2.4v10.7c0,.9.2,1.5.7,1.8.4.3,1.1.5,2.1.5s.9,0,1.3-.1c.4,0,.7-.1,1-.2v-13.3c0-.4,0-.8-.1-1.1.4-.4.9-.7,1.5-.9.7-.3,1.4-.4,2.2-.4s1.8.2,2.4.8c.6.5.9,1.3.9,2.4v10.7c0,.9.2,1.5.7,1.8.4.3,1.2.5,2.1.5s.9,0,1.3-.1c.4,0,.7-.1.9-.2v-12.9c0-1.6-.3-3-1-4-.7-1-1.6-1.8-2.8-2.2h0Z"/>
            <path class="cls-1" d="M125.4,223c-1.6-.7-3.3-1-5.3-1s-2.8.2-4,.5-2.2.7-2.9,1.2c-.6.4-1,.7-1.2,1.1-.2.4-.4.9-.4,1.6v20.8c0,.9.2,1.5.7,1.8.4.4,1.1.5,2.1.5s.9,0,1.3-.1c.4,0,.7-.1.9-.2v-7.6c.3.1.7.3,1.1.4.9.3,1.9.4,3,.4,1.9,0,3.6-.4,5-1.2,1.5-.8,2.6-1.9,3.4-3.5.8-1.5,1.2-3.4,1.2-5.7s-.4-4.3-1.3-5.8-2.1-2.6-3.7-3.3h0ZM123.8,236.9c-1,1-2.2,1.5-3.9,1.5s-1.8-.2-2.6-.5c-.3-.1-.5-.3-.8-.4v-10.6c.4-.2.9-.5,1.5-.6.6-.2,1.2-.3,2-.3s1.9.2,2.7.6c.8.4,1.4,1.1,1.9,1.9.4.9.7,2.1.7,3.6,0,2.2-.5,3.8-1.4,4.8Z"/>
            <path class="cls-1" d="M137.2,214.9c-.5,0-.9,0-1.3.1s-.7.1-.9.2v24.5c0,.9.2,1.5.7,1.8.4.3,1.1.5,2.1.5s.9,0,1.4-.1c.4,0,.7-.1.9-.2v-24.5c0-.9-.2-1.5-.7-1.8-.4-.3-1.1-.5-2.1-.5Z"/>
            <path class="cls-1" d="M158.9,223c-1.4-.7-2.9-1.1-4.7-1.1s-2.5.2-3.7.6c-1.2.4-2.2,1.1-3.1,1.9s-1.6,1.9-2.1,3.1c-.5,1.3-.8,2.7-.8,4.4s.5,4.3,1.4,5.8,2.2,2.7,3.8,3.5c1.6.8,3.5,1.2,5.6,1.2s2.6-.1,3.6-.4,1.9-.7,2.5-1.2.9-1.1.9-1.8-.1-.8-.4-1.2c-.2-.4-.5-.7-.9-.9-.6.4-1.4.8-2.3,1.1-1,.3-2.1.5-3.2.5-1.7,0-3.1-.4-4.2-1.2-.9-.6-1.5-1.6-1.8-2.9l11.4-1.6c.7,0,1.3-.3,1.7-.7.4-.4.6-.9.6-1.7,0-1.7-.4-3.1-1.2-4.4s-1.8-2.3-3.2-3h0ZM149.3,231c0-1.6.5-2.9,1.4-3.8.9-1,2.1-1.4,3.5-1.4s2.4.4,3.1,1.1c.7.8,1.1,1.7,1.2,2.7l-9.2,1.4h0Z"/>
            <path class="cls-1" d="M181.1,223.6c-1.6-1.1-3.7-1.7-6.4-1.7s-2,0-3.1.2c-1,.2-1.9.4-2.7.8-1.1.5-1.6,1.2-1.6,2.2s.1.8.3,1.2.5.7.7.9c.8-.4,1.7-.7,2.7-1,1-.3,2.1-.4,3.1-.4s2.4.2,3.2.7,1.1,1.3,1.1,2.4v.7l-5.6.6c-2.2.2-3.9.8-5.1,1.8s-1.7,2.4-1.7,4.2.8,3.6,2.3,4.7c1.6,1.1,3.7,1.6,6.4,1.6s2.8-.1,4-.4,2.1-.6,2.9-1.1c.5-.3.9-.6,1.2-1,.3-.4.5-.9.5-1.6v-9.4c0-2.4-.8-4.2-2.4-5.3h0ZM178.6,237.9c-.3.2-.8.4-1.4.5s-1.4.2-2.2.2c-1.3,0-2.3-.2-2.9-.7-.6-.5-.9-1.1-.9-1.9s.3-1.3.9-1.7c.6-.4,1.4-.6,2.6-.7l4.1-.4v4.7h0Z"/>
            <path class="cls-1" d="M203.1,223.1c-1.4-.8-3-1.1-4.7-1.1s-2.4.2-3.3.6c-.5.2-.9.4-1.3.6v-5.8c0-.9-.2-1.5-.7-1.8-.4-.3-1.1-.5-2.1-.5s-.9,0-1.4.1-.7.1-.9.2v22.5c0,.6.1,1.1.4,1.6.3.4.7.8,1.2,1.2.8.5,1.8.9,2.9,1.3s2.5.6,4.1.6,3.8-.4,5.4-1.1,2.7-1.9,3.6-3.4,1.3-3.4,1.3-5.7-.4-4.2-1.2-5.7c-.8-1.5-1.9-2.6-3.3-3.4h0ZM201.1,236.9c-.9,1-2.2,1.6-3.8,1.6s-1.5-.1-2.1-.3c-.6-.2-1.1-.4-1.4-.7v-10.3c.4-.2.7-.5,1.1-.7.7-.4,1.6-.5,2.5-.5,1.5,0,2.7.5,3.6,1.5s1.4,2.6,1.4,4.7-.5,3.7-1.4,4.8h0Z"/>
            <path class="cls-1" d="M214.6,213.9c-.9,0-1.6.3-2.1.8s-.8,1.2-.8,2,.3,1.4.8,2c.6.6,1.3.8,2.1.8s1.6-.3,2.1-.8.8-1.2.8-2-.3-1.5-.8-2-1.2-.8-2.1-.8Z"/>
            <path class="cls-1" d="M214.4,222.3c-.5,0-.9,0-1.4.1-.4,0-.7.1-1,.2v17.1c0,.9.2,1.5.7,1.8.5.3,1.2.5,2.1.5s.9,0,1.4-.1c.4,0,.7-.1.9-.2v-17.1c0-.9-.2-1.5-.6-1.9-.4-.3-1.1-.5-2.1-.5h0Z"/>
            <path class="cls-1" d="M225.2,214.9c-.5,0-.9,0-1.3.1s-.7.1-.9.2v24.5c0,.9.2,1.5.7,1.8.4.3,1.1.5,2.1.5s.9,0,1.4-.1c.4,0,.7-.1.9-.2v-24.5c0-.9-.2-1.5-.7-1.8-.4-.3-1.1-.5-2.1-.5h0Z"/>
            <path class="cls-1" d="M236,222.3c-.5,0-.9,0-1.4.1-.4,0-.7.1-1,.2v17.1c0,.9.2,1.5.7,1.8.5.3,1.2.5,2.1.5s.9,0,1.4-.1c.4,0,.7-.1.9-.2v-17.1c0-.9-.2-1.5-.6-1.9-.4-.3-1.1-.5-2.1-.5h0Z"/>
            <path class="cls-1" d="M236.2,213.9c-.9,0-1.6.3-2.1.8s-.8,1.2-.8,2,.3,1.4.8,2c.6.6,1.3.8,2.1.8s1.6-.3,2.1-.8.8-1.2.8-2-.3-1.5-.8-2c-.5-.6-1.2-.8-2.1-.8Z"/>
            <path class="cls-1" d="M259.2,214.9c-.5,0-.9,0-1.3.1-.4,0-.7.1-.9.2v7.4c-.3-.1-.7-.3-1.1-.4-.8-.2-1.8-.4-2.8-.4-1.8,0-3.5.4-5,1.1s-2.7,1.9-3.6,3.4c-.9,1.5-1.3,3.5-1.3,5.9s.4,4.2,1.3,5.8,2.1,2.6,3.7,3.4c1.6.7,3.5,1.1,5.6,1.1s2.7-.2,3.9-.5,2-.7,2.7-1.2c.6-.4,1-.7,1.2-1.1.3-.4.4-.9.4-1.5v-20.9c0-.9-.2-1.5-.7-1.8-.4-.3-1.1-.5-2.1-.5h0ZM255.7,238.2c-.5.2-1.1.2-1.9.2-1.7,0-3-.5-4-1.5s-1.5-2.5-1.5-4.7.2-2.7.7-3.7c.5-.9,1.1-1.6,1.9-2.1.8-.4,1.7-.6,2.7-.6s1.8.1,2.5.4c.3.1.6.3.8.4v10.8c-.4.2-.8.4-1.3.6h0Z"/>
            <path class="cls-1" d="M281.2,223.6c-1.6-1.1-3.7-1.7-6.4-1.7s-2,0-3,.2c-1,.2-1.9.4-2.7.8-1.1.5-1.6,1.2-1.6,2.2s.1.8.3,1.2.5.7.7.9c.8-.4,1.7-.7,2.7-1,1-.3,2-.4,3.1-.4s2.4.2,3.2.7,1.1,1.3,1.1,2.4v.7l-5.6.6c-2.2.2-3.9.8-5.1,1.8s-1.7,2.4-1.7,4.2.8,3.6,2.3,4.7c1.6,1.1,3.7,1.6,6.4,1.6s2.8-.1,4-.4,2.1-.6,2.9-1.1c.5-.3.9-.6,1.2-1,.3-.4.5-.9.5-1.6v-9.4c0-2.4-.8-4.2-2.4-5.3h0ZM278.6,237.9c-.3.2-.8.4-1.4.5s-1.4.2-2.2.2c-1.3,0-2.3-.2-2.9-.7-.6-.5-.9-1.1-.9-1.9s.3-1.3.9-1.7c.6-.4,1.4-.6,2.6-.7l4-.4v4.7h0Z"/>
            <path class="cls-1" d="M303.8,214.9c-.5,0-.9,0-1.3.1-.4,0-.7.1-.9.2v7.4c-.3-.1-.7-.3-1.1-.4-.8-.2-1.8-.4-2.8-.4-1.8,0-3.5.4-5,1.1s-2.7,1.9-3.6,3.4c-.9,1.5-1.3,3.5-1.3,5.9s.4,4.2,1.3,5.8,2.1,2.6,3.7,3.4,3.5,1.1,5.6,1.1,2.7-.2,3.9-.5,2-.7,2.7-1.2c.6-.4,1-.7,1.2-1.1s.4-.9.4-1.5v-20.9c0-.9-.2-1.5-.6-1.8-.4-.3-1.1-.5-2.1-.5h0ZM300.2,238.2c-.5.2-1.1.2-1.9.2-1.7,0-3-.5-4-1.5s-1.5-2.5-1.5-4.7.2-2.7.7-3.7c.5-.9,1.1-1.6,1.9-2.1.8-.4,1.7-.6,2.7-.6s1.8.1,2.5.4c.3.1.6.3.8.4v10.8c-.4.2-.8.4-1.3.6h0Z"/>
            <path class="cls-1" d="M336.7,222.6c-.5-.3-1.1-.5-1.8-.5s-.8,0-1.1.1c-.4.1-.7.2-1,.4-.3,1.6-.7,3.2-1.2,5-.5,1.8-1,3.4-1.5,5.1-.5,1.6-1,3-1.6,4.2h-.2c-.8-2.2-1.6-4.3-2.3-6.4-.7-2.1-1.4-4.2-2.1-6.3-.2-.8-.6-1.4-1-1.7-.5-.3-1-.5-1.7-.5s-1,.1-1.5.3c-.5.2-.9.5-1.1.8.6,2.2,1.2,4.1,1.8,5.9s1.2,3.4,1.7,4.7,1.1,2.5,1.5,3.4c.6,1.1,1.1,1.9,1.6,2.4.5.4.9.7,1.4.8-.4.8-1,1.6-1.6,2.4-.6.8-1.3,1.6-2,2.3s-1.3,1.3-1.9,1.9c.1.7.4,1.4,1,1.9s1.2.8,2.1.8,2.2-.6,3.4-1.9c1.2-1.3,2.5-3.1,3.9-5.6.6-1.1,1.2-2.3,1.8-3.6s1.1-2.7,1.7-4.1,1-2.8,1.4-4.1.7-2.5,1-3.6.4-1.9.4-2.6-.2-1.3-.8-1.6h0Z"/>
            <path class="cls-1" d="M366.4,217h-13.6c-.9,0-1.5.2-2,.7s-.8,1.2-.8,2v20c0,.9.2,1.4.7,1.8.5.4,1.2.6,2.1.6s.9,0,1.4-.1c.5,0,.8-.1,1-.2v-9.8h8.5c.6,0,1.1-.2,1.4-.6.3-.4.5-.9.5-1.6s0-.8-.2-1.1c-.1-.4-.2-.6-.4-.9h-9.8v-6.6h9.9c.6,0,1.1-.2,1.4-.6.3-.4.5-.9.5-1.6s0-.8-.2-1.2-.2-.6-.4-.8Z"/>
            <path class="cls-1" d="M384.1,223.2c-1.5-.9-3.2-1.3-5.2-1.3s-3.7.4-5.2,1.2-2.7,2-3.5,3.5c-.9,1.5-1.3,3.3-1.3,5.4s.4,4,1.2,5.5,2,2.7,3.5,3.5c1.5.8,3.3,1.2,5.3,1.2s3.8-.4,5.3-1.2c1.5-.8,2.6-2,3.5-3.6.8-1.5,1.2-3.4,1.2-5.5s-.4-3.9-1.2-5.4-2-2.7-3.5-3.6h0ZM382.5,236.8c-.9,1.1-2,1.6-3.5,1.6s-2.7-.5-3.6-1.6c-.9-1.1-1.3-2.6-1.3-4.6s.4-3.5,1.3-4.6,2-1.6,3.5-1.6,2.7.6,3.6,1.7,1.3,2.6,1.3,4.6-.4,3.5-1.3,4.6h0Z"/>
            <path class="cls-1" d="M402.2,221.9c-1.5,0-2.8.2-4,.5-1.3.3-2.3.7-3.1,1.2-.6.4-1.1.9-1.4,1.3-.3.5-.5,1.1-.5,1.7v13.1c0,.9.2,1.5.7,1.8.5.3,1.1.5,2.1.5s.9,0,1.4-.1c.4,0,.7-.1.9-.2v-14.7c.6-.4,1.3-.6,2.2-.8.9-.2,1.8-.3,2.8-.3s.9,0,1.3,0,.8,0,1,.1c.2-.2.3-.5.4-.8.1-.3.2-.7.2-1,0-1.6-1.3-2.4-3.9-2.4h0Z"/>
            <path class="cls-1" d="M434,222.6c-1.2-.5-2.5-.7-3.9-.7s-3,.2-4.1.8c-.8.4-1.6.8-2.2,1.3-.6-.6-1.4-1.1-2.4-1.4-1.1-.4-2.4-.6-3.7-.6s-2.6.2-3.9.5c-1.2.4-2.3.8-3.1,1.4-.5.4-1,.7-1.2,1.2-.3.4-.4,1-.4,1.6v13.1c0,.9.2,1.5.7,1.8.5.3,1.1.5,2.1.5s.9,0,1.4-.1c.4,0,.7-.1.9-.2v-14.8c.4-.3.9-.5,1.5-.7.6-.2,1.2-.3,2-.3s1.8.2,2.4.8c.6.5,1,1.3,1,2.4v10.7c0,.9.2,1.5.6,1.8.4.3,1.1.5,2.1.5s.9,0,1.3-.1c.4,0,.7-.1,1-.2v-13.3c0-.4,0-.8-.1-1.1.4-.4.9-.7,1.5-.9.7-.3,1.4-.4,2.1-.4s1.8.2,2.4.8c.6.5.9,1.3.9,2.4v10.7c0,.9.2,1.5.7,1.8.5.3,1.1.5,2.1.5s.9,0,1.3-.1c.4,0,.7-.1.9-.2v-12.9c0-1.6-.3-3-1-4-.7-1-1.6-1.8-2.8-2.2h0Z"/>
            <path class="cls-1" d="M456.9,223.6c-1.6-1.1-3.7-1.7-6.4-1.7s-2,0-3,.2c-1,.2-1.9.4-2.7.8-1.1.5-1.6,1.2-1.6,2.2s.1.8.3,1.2.5.7.7.9c.8-.4,1.7-.7,2.7-1,1-.3,2-.4,3.1-.4s2.4.2,3.2.7,1.1,1.3,1.1,2.4v.7l-5.6.6c-2.2.2-3.9.8-5.1,1.8s-1.7,2.4-1.7,4.2.8,3.6,2.3,4.7c1.6,1.1,3.7,1.6,6.4,1.6s2.8-.1,4-.4,2.1-.6,2.9-1.1c.5-.3.9-.6,1.2-1,.3-.4.5-.9.5-1.6v-9.4c0-2.4-.8-4.2-2.4-5.3h0ZM454.4,237.9c-.3.2-.8.4-1.4.5s-1.4.2-2.2.2c-1.3,0-2.3-.2-2.9-.7-.6-.5-.9-1.1-.9-1.9s.3-1.3.9-1.7c.6-.4,1.4-.6,2.6-.7l4-.4v4.7h0Z"/>
            <path class="cls-1" d="M478.8,237.2c-.5.3-1.1.6-1.8.8s-1.5.4-2.6.4c-1.7,0-3.1-.5-4.1-1.6s-1.6-2.6-1.6-4.6.5-3.6,1.7-4.7,2.5-1.6,4.1-1.6,1.8.1,2.5.4c.7.2,1.3.5,1.8.9.3-.2.6-.5.8-.9.2-.4.3-.7.3-1.1,0-.9-.5-1.7-1.6-2.3-1.1-.6-2.5-.9-4.3-.9s-3.6.4-5.2,1.1-2.8,1.9-3.8,3.4c-.9,1.5-1.4,3.4-1.4,5.8s.4,4.1,1.3,5.6c.9,1.5,2.1,2.7,3.7,3.4,1.6.8,3.4,1.1,5.5,1.1s3.3-.3,4.4-.9c1.1-.6,1.7-1.3,1.7-2.3s-.1-.9-.4-1.2-.5-.6-1-.9h0Z"/>
            <path class="cls-1" d="M486.7,222.3c-.5,0-1,0-1.4.1-.4,0-.7.1-1,.2v17.1c0,.9.2,1.5.7,1.8.5.3,1.2.5,2.1.5s.9,0,1.4-.1c.4,0,.7-.1.9-.2v-17.1c0-.9-.2-1.5-.7-1.9s-1.1-.5-2.1-.5h0Z"/>
            <path class="cls-1" d="M486.9,213.9c-.9,0-1.5.3-2.1.8s-.8,1.2-.8,2,.3,1.4.8,2c.6.6,1.3.8,2.1.8s1.6-.3,2.1-.8.8-1.2.8-2-.3-1.5-.8-2c-.5-.6-1.2-.8-2.1-.8Z"/>
            <path class="cls-1" d="M504.3,220.5l3.8-3.4c.5-.5.9-.9,1.1-1.2.2-.3.3-.7.3-1.2s-.3-1.1-.8-1.5c-.5-.4-1.3-.7-2.3-.7l-4,4.5c-.2.3-.4.5-.6.8-.1.2-.2.5-.2.8,0,.5.2.9.7,1.4s1.1.6,2,.6h0Z"/>
            <path class="cls-1" d="M509.2,223.2c-1.5-.9-3.2-1.3-5.2-1.3s-3.7.4-5.2,1.2-2.7,2-3.5,3.5c-.9,1.5-1.3,3.3-1.3,5.4s.4,4,1.2,5.5,2,2.7,3.5,3.5c1.5.8,3.3,1.2,5.3,1.2s3.8-.4,5.3-1.2c1.5-.8,2.6-2,3.5-3.6s1.2-3.4,1.2-5.5-.4-3.9-1.2-5.4c-.8-1.5-2-2.7-3.5-3.6h0ZM507.5,236.8c-.9,1.1-2,1.6-3.5,1.6s-2.7-.5-3.6-1.6-1.3-2.6-1.3-4.6.4-3.5,1.3-4.6c.9-1.1,2-1.6,3.5-1.6s2.7.6,3.6,1.7,1.3,2.6,1.3,4.6-.4,3.5-1.3,4.6h0Z"/>
            <path class="cls-1" d="M533.8,223.8c-1.5-1.2-3.7-1.8-6.5-1.8s-3,.2-4.3.6c-1.3.4-2.4.8-3.2,1.4-.5.4-1,.7-1.2,1.2s-.4,1-.4,1.6v13.1c0,.9.2,1.5.7,1.8.5.3,1.1.5,2.1.5s.9,0,1.3-.1c.4,0,.7-.1.9-.2v-14.8c.5-.3,1.1-.5,1.8-.7.7-.2,1.4-.3,2.3-.3s2.1.3,2.7.8,1,1.4,1,2.6v10.4c0,.9.2,1.5.7,1.8.5.3,1.2.5,2.1.5s.9,0,1.3-.1c.4,0,.7-.1.9-.2v-12.6c0-2.4-.8-4.2-2.3-5.4h0Z"/>
          </g>
        </g>
      </g>
    </g>
  </g>
</svg>