<?xml version="1.0" encoding="UTF-8"?>
<svg xmlns="http://www.w3.org/2000/svg" version="1.1" viewBox="0 0 387.75 288.25">
  <defs>
    <style>
      .cls-1 {
        fill: #00798C;
      }
    </style>
  </defs>
  <!-- Generator: Adobe Illustrator 28.6.0, SVG Export Plug-In . SVG Version: 1.2.0 Build 709)  -->
  <g>
    <g id="Capa_1">
      <path class="cls-1" d="M177.22,63.35v127.49c0,.57.03,1.14.09,1.7v34.8c0,33.64,27.27,60.92,60.92,60.92s60.92-27.27,60.92-60.92v-118.16c0-15.01,12.4-27.18,27.69-27.18s27.69,12.17,27.69,27.18v127.49c0,9.17,7.44,16.61,16.61,16.61s16.61-7.44,16.61-16.61V106.74c0-33.64-27.27-60.92-60.92-60.92s-60.92,27.27-60.92,60.92v118.16c0,15.01-12.4,27.18-27.69,27.18s-27.69-12.17-27.69-27.18v-116.64c0-.57-.03-1.14-.09-1.7v-45.64c0-33.64-27.27-60.92-60.92-60.92s-60.92,27.27-60.92,60.92h0v118.16c0,15.01-12.4,27.18-27.69,27.18s-27.69-12.17-27.69-27.18V62.44c0-9.18-7.44-16.61-16.61-16.61S0,53.26,0,62.44v119.07c0,33.64,27.27,60.92,60.92,60.92s60.92-27.27,60.92-60.92V63.35c0-15.01,12.4-27.18,27.69-27.18s27.69,12.17,27.69,27.18Z"/>
    </g>
  </g>
</svg>